<svg xmlns="http://www.w3.org/2000/svg" width="54" height="53">
	<path fill-rule="evenodd" clip-rule="evenodd" d="M53.0381 34.967V17.491C48.2861 19.287 39.388 21.471 30.764 22.489C30.776 22.395 30.79 22.299 30.802 22.205L30.76 22.213L31.09 20.145C31.144 19.791 31.198 19.437 31.258 19.083L31.51 17.509C32.31 12.477 34.524 5.17498 36.464 0.000976562H17.818C19.612 4.75098 22.296 13.875 23.314 22.499C14.69 21.481 5.56402 19.287 0.814012 17.491L0.812012 27.181L0.814012 34.967C5.56402 33.175 14.958 30.729 23.584 29.713C22.566 38.339 20.1 47.463 18.308 52.213H35.786C33.994 47.463 31.572 38.339 30.554 29.713C39.178 30.729 48.2861 33.175 53.0381 34.967" fill="#9EB4C3"/>
	<path fill-rule="evenodd" clip-rule="evenodd" d="M7.24682 0.000244141C8.20882 3.18624 9.37282 6.63624 9.75082 9.01624C7.37482 8.63624 3.92082 7.47024 0.736816 6.51024L0.804816 12.1002C6.25482 14.2382 12.9508 16.2662 17.7668 17.0322C17.0008 12.2142 14.9768 5.51824 12.8348 0.0682441L7.24682 0.000244141Z" fill="#004972"/>
	<path fill-rule="evenodd" clip-rule="evenodd" d="M53.0378 6.50995C49.8538 7.47195 46.4018 8.63595 44.0238 9.01395C44.4018 6.63795 45.5678 3.18595 46.5278 0.00195312L40.9398 0.0699531C38.7998 5.51795 36.7738 12.216 36.0078 17.03C40.8238 16.264 47.5198 14.24 52.9698 12.098L53.0378 6.50995Z" fill="#004972"/>
	<path fill-rule="evenodd" clip-rule="evenodd" d="M46.5268 52.2327C45.5668 49.0487 44.4008 45.5967 44.0228 43.2187C46.4008 43.5967 49.8528 44.7627 53.0369 45.7247L52.9689 40.1347C47.5208 37.9947 40.8228 35.9687 36.0068 35.2007C36.7728 40.0187 38.7968 46.7167 40.9388 52.1647L46.5268 52.2327Z" fill="#004972"/>
	<path fill-rule="evenodd" clip-rule="evenodd" d="M0.736816 45.7229C3.92082 44.7629 7.37482 43.5989 9.75082 43.2189C9.37282 45.5969 8.20682 49.0469 7.24682 52.2309L12.8348 52.1629C14.9768 46.7169 17.0008 40.0189 17.7668 35.2029C12.9508 35.9689 6.25282 37.9929 0.804816 40.1349L0.736816 45.7229Z" fill="#004972"/>
</svg>
