<?xml version="1.0" encoding="UTF-8"?>
<svg width="1368" height="393.6" version="1.1" viewBox="0 0 1368 393.6" xmlns="http://www.w3.org/2000/svg"><g><g><path transform="matrix(1.3333 0 0 -1.3333 0 393.6)" d="m0 0.2h1025.9v294.2h-1025.9z" fill="#ffffff"/><path transform="matrix(1.3333 0 0 -1.3333 0 393.6)" d="m242.04 189.48v-141.92h-59.62v99.75c7.95 4.57 15.73 9.41 23.32 14.53 1.27 0.85 2.53 1.71 3.78 2.57 1.26 0.87 2.51 1.74 3.75 2.62 0.93 0.66 1.87 1.33 2.79 2 2.91 2.08 5.79 4.22 8.63 6.39 0.93 0.72 1.86 1.43 2.78 2.15 0.21 0.16 0.42 0.32 0.62 0.49 1.14 0.89 2.28 1.79 3.41 2.69 1 0.8 2 1.6 2.99 2.42 0.33 0.25 0.65 0.51 0.97 0.79 1.04 0.85 2.07 1.71 3.1 2.57 1.06 0.89 2.11 1.78 3.16 2.68 0.11 0.08 0.21 0.17 0.32 0.27z" fill="#f7991c"/><path transform="matrix(1.3333 0 0 -1.3333 0 393.6)" d="m172.95 142.05v-94.49h-59.61v68.59c20.71 6.99 40.63 15.68 59.61 25.9z" fill="#c21d28"/></g><g fill="#151518"><path transform="matrix(1.3333 0 0 -1.3333 0 393.6)" d="m103.86 113.09v-65.53h-59.621v52.17c20.43 2.91 40.34 7.4 59.621 13.36z"/><path transform="matrix(1.3333 0 0 -1.3333 0 393.6)" d="m632.42 247.06c63.602 0 99.093-37.318 92.153-99.141-6.806-60.637-39.617-100.35-115.9-100.35h-121.74l30.584 199.49zm-21.927-42.632c15.561 0 24.951-2.433 32.081-8.301 11.86-9.758 16.686-28.02 13.606-48.22-4.525-29.605-17.044-56.456-59.049-56.456h-36.414l17.306 112.98z" fill-rule="evenodd"/><path transform="matrix(1.3333 0 0 -1.3333 0 393.6)" d="m831.36 247.06-17.153-111.88c-3.831-25.005 9.966-43.653 36.708-43.653 22.784 0 41.97 15.329 46.313 43.658l17.155 111.87h67.298l-16.117-105.11c-8.879-57.934-41.19-97.819-119.44-97.819-51.992 0-80.833 18.813-93.273 43.05-9.311 18.139-9.727 39.475-6.979 57.373l15.71 102.51z"/><path transform="matrix(1.3333 0 0 -1.3333 0 393.6)" d="m468.94 100.68c-10.048-3.111-33.072-5.756-55.99-5.756-51.694 0-69.587 24.303-67.68 52.991 2.124 31.954 29.713 54.531 83.327 54.531 21.618 0 44.747-5.549 50.361-7.296l7.218 46.888c-9.944 2.786-38.29 8.464-77.117 8.464-95.344 0-127.97-52.702-134.17-91.271-8.726-54.241 25.88-115.11 117.78-115.11 29.28 0 59.209 4.34 68.881 8.828z"/></g></g></svg>
