<svg width="558" height="143" viewBox="0 0 558 143" fill="none" xmlns="http://www.w3.org/2000/svg">
  <path d="M20.639 74.321C5.11 74.321 0.392998 74.911 0.392998 74.911L0 75.304V138.991L0.392998 139.384H17.3L17.693 138.991V118.941H23.193C42.26 118.941 50.909 111.078 50.909 97.712V95.353C51.107 78.056 36.168 74.321 20.639 74.321ZM32.826 98.105C32.826 105.771 30.271 109.505 22.998 109.505H17.887V84.542H22.6C30.069 84.542 32.821 88.67 32.821 96.142L32.826 98.105Z" fill="#005940"/>
  <path d="M99.2652 119.724C98.2973 117.834 97.0368 116.109 95.5302 114.613C99.1918 113.279 102.349 110.842 104.568 107.638C106.786 104.434 107.955 100.621 107.914 96.724V94.763C107.914 77.463 92.5822 74.124 77.0532 74.124C63.0972 74.124 57.5932 74.714 57.5932 74.714L57.2002 75.107V138.794L57.5932 139.187H74.5002L74.8932 138.794V119.53H79.6112C80.7902 119.53 81.5772 120.316 82.3632 121.889L91.4052 139.383H109.096V138.99L99.2652 119.724ZM90.2232 98.495C90.2232 106.161 87.2752 109.503 80.0022 109.503H75.2842V84.542H80.0002C87.4692 84.542 90.2212 88.67 90.2212 96.142L90.2232 98.495Z" fill="#005940"/>
  <path d="M146.637 71.962C126.784 71.962 113.418 84.739 113.418 106.162V107.931C113.418 129.357 126.784 142.131 146.637 142.131C166.49 142.131 179.856 129.158 179.856 107.931V106.162C179.857 84.935 166.49 71.962 146.637 71.962ZM161.379 107.933C161.379 123.462 156.465 131.128 146.833 131.128C137.201 131.128 132.288 123.069 132.288 107.933V106.162C132.288 91.027 137.202 82.967 146.834 82.967C156.466 82.967 161.38 91.029 161.38 106.162L161.379 107.933Z" fill="#005940"/>
  <path d="M218.973 139.384L239.612 75.5L239.219 74.91H225.26L213.27 115.402C212.68 117.564 212.091 119.53 211.697 120.902H211.497L198.137 74.714H180.053L179.66 75.107L200.103 139.384H218.973Z" fill="#005940"/>
  <path d="M261.824 139.384L262.414 138.794V75.107L262.016 74.714H245.509L245.116 75.107V138.794L245.706 139.384H261.824Z" fill="#005940"/>
  <path d="M321.58 139.384H325.708V75.107L325.315 74.714H312.735L312.342 75.107V109.707H312.142C311.602 108.884 311.011 108.097 310.373 107.348L285.215 77.859C283.249 75.697 282.07 74.714 278.139 74.714H273.618L273.225 75.107V138.794L273.618 139.187H286.198L286.591 138.794V104.394H286.791C287.519 105.359 288.307 106.278 289.15 107.146L315.097 136.631C317.259 138.99 317.849 139.383 319.028 139.383H321.583L321.58 139.384Z" fill="#005940"/>
  <path d="M380.943 139.383L381.533 138.793V127.982L380.943 127.392H354.407V127.192C355.107 126.422 355.702 125.563 356.176 124.637L379.96 81.982C380.713 80.6638 381.119 79.1759 381.139 77.658V75.303L380.746 74.91H334.16L333.767 75.303V86.51L334.16 86.903H359.32V87.103C358.467 87.938 357.797 88.9421 357.354 90.051L334.554 131.919C333.571 133.688 332.981 134.474 332.981 136.637V138.799L333.571 139.389L380.943 139.383Z" fill="#005940"/>
  <path d="M405.906 139.384L406.496 138.794V75.107L406.098 74.714H389.591L389.198 75.107V138.794L389.788 139.384H405.906Z" fill="#005940"/>
  <path d="M452.686 75.107L452.293 74.714H434.212L433.819 75.107L412.786 138.794L413.179 139.187H426.546L429.101 130.735H453.672L456.227 139.187H474.311L474.704 138.794L452.686 75.107ZM432.639 119.334L440.502 94.174C440.702 93.388 440.895 92.601 441.092 91.619H441.485L450.134 119.335L432.639 119.334Z" fill="#005940"/>
  <path d="M525.81 138.991V127.791L525.417 127.398H498.488V75.107L498.097 74.714H481.197L480.804 75.107V138.991L481.197 139.384H525.417L525.81 138.991Z" fill="#005940"/>
  <path d="M557.262 137.614C554.314 126.606 551.362 115.992 549.793 104.591C548.157 91.6204 547.697 78.5285 548.417 65.475C548.81 58.792 549.4 52.305 549.596 45.622C549.796 39.528 550.186 32.845 548.22 26.948C545.075 17.513 534.854 12.402 525.812 16.727C514.612 21.838 507.138 37.956 501.831 56.237C501.438 57.81 502.031 58.989 503.207 56.827C516.77 28.915 528.957 17.318 537.607 25.966C541.538 29.897 541.145 37.166 540.752 42.281C536.034 89.85 542.128 115.6 555.691 138.794C556.084 139.777 557.657 139.58 557.264 137.615L557.262 137.614Z" fill="#FFDD00"/>
  <path d="M534.853 46.014C524.435 67.046 522.666 100.266 531.315 122.871C531.905 124.64 532.888 124.444 532.888 122.478C531.905 99.087 534.264 69.995 536.23 46.407C536.426 44.442 535.64 44.442 534.853 46.014Z" fill="#FFDD00"/>
  <path d="M528.366 39.332C523.059 46.998 519.521 55.843 516.966 64.689C514.157 74.0659 512.7 83.7956 512.641 93.584C512.669 96.8831 512.998 100.173 513.624 103.412C513.824 104.591 514.017 105.181 514.607 105.181C515 105.181 515.197 104.591 515.197 104.395C519.128 86.508 526.597 55.254 529.743 40.511C529.743 40.118 530.136 38.742 529.35 38.742C528.956 38.349 528.563 39.135 528.366 39.332Z" fill="#FFDD00"/>
  <path d="M504.581 75.5C504.581 76.483 504.188 83.166 505.367 83.166C505.76 83.166 506.153 82.576 506.35 81.593C508.709 73.73 517.358 48.177 520.503 39.135C520.532 38.8576 520.461 38.5792 520.303 38.349C519.91 38.149 519.713 38.349 519.124 38.742C511.461 45.622 505.367 57.611 504.581 75.5Z" fill="#FFDD00"/>
  <path d="M479.815 68.423C479.225 69.406 476.08 75.106 474.901 74.517C474.747 74.2476 474.666 73.9428 474.666 73.6325C474.666 73.3223 474.747 73.0174 474.901 72.748C477.063 64.885 483.157 38.548 485.319 29.307C485.361 29.1678 485.437 29.0411 485.54 28.9382C485.643 28.8353 485.77 28.7593 485.909 28.717C486.302 28.717 486.499 28.917 486.695 29.7C489.643 39.331 488.464 52.894 479.815 68.423Z" fill="#FFDD00"/>
  <path d="M460.158 83.756C461.534 81.987 462.91 79.825 463.303 79.432C468.52 71.1699 472.432 62.153 474.903 52.699C477.613 43.7852 478.874 34.4938 478.638 25.18C478.638 24.787 478.638 24.001 478.245 23.804C477.655 23.411 477.066 24.787 477.066 25.18C472.545 37.17 464.486 61.151 458.392 78.646L460.158 83.756Z" fill="#FFDD00"/>
  <path d="M492.985 7.292C487.485 -1.16 476.085 -2.34 468.414 4.147C463.696 8.078 460.355 13.975 457.406 19.282C454.064 24.982 451.116 30.882 447.774 36.776C441.513 48.2807 434.14 59.144 425.76 69.21C421.042 74.71 415.735 80.021 410.624 84.935V90.435C430.674 77.855 447.971 58.592 466.645 21.048C468.807 16.527 472.545 10.04 477.845 8.861C489.835 6.306 493.963 22.424 490.622 53.285C490.422 55.84 491.605 55.054 491.998 53.485C497.506 35.204 499.864 17.71 492.985 7.292Z" fill="#FFDD00"/>
  <path d="M453.082 70.388C461.927 56.825 468.021 40.903 469.397 27.144C469.597 25.375 468.807 24.982 468.021 26.751C461.141 40.314 453.082 55.843 444.63 70.388H453.082Z" fill="#FFDD00"/>
</svg>
